<svg width="381" height="428" viewBox="0 0 381 428" fill="none" xmlns="http://www.w3.org/2000/svg">
<rect width="365" height="408" rx="18" fill="url(#paint0_linear)"/>
<mask id="mask0" mask-type="alpha" maskUnits="userSpaceOnUse" x="0" y="0" width="365" height="408">
<rect width="365" height="408" rx="18" fill="url(#paint1_linear)"/>
</mask>
<g mask="url(#mask0)">
<ellipse opacity="0.04" cx="373.5" cy="427.059" rx="262.5" ry="264.059" fill="url(#paint2_linear)"/>
<path opacity="0.05" d="M548 421.559C548 517.933 469.202 596.059 372 596.059C274.798 596.059 196 517.933 196 421.559C196 325.186 274.798 247.059 372 247.059C469.202 247.059 548 325.186 548 421.559ZM283.19 421.559C283.19 470.19 322.952 509.612 372 509.612C421.048 509.612 460.81 470.19 460.81 421.559C460.81 372.929 421.048 333.507 372 333.507C322.952 333.507 283.19 372.929 283.19 421.559Z" fill="url(#paint3_linear)"/>
</g>
<defs>
<linearGradient id="paint0_linear" x1="182.5" y1="0" x2="182.5" y2="408" gradientUnits="userSpaceOnUse">
<stop stop-color="#179AFB"/>
<stop offset="1" stop-color="#6C63FF"/>
</linearGradient>
<linearGradient id="paint1_linear" x1="182.5" y1="0" x2="182.5" y2="408" gradientUnits="userSpaceOnUse">
<stop stop-color="#179AFB"/>
<stop offset="1" stop-color="#6C63FF"/>
</linearGradient>
<linearGradient id="paint2_linear" x1="218.088" y1="249.975" x2="503.225" y2="500.078" gradientUnits="userSpaceOnUse">
<stop offset="0.0134642" stop-color="white"/>
<stop offset="0.460321" stop-color="white"/>
<stop offset="1" stop-color="#8792A1" stop-opacity="0.08"/>
</linearGradient>
<linearGradient id="paint3_linear" x1="267.8" y1="304.536" x2="456.565" y2="472.523" gradientUnits="userSpaceOnUse">
<stop offset="0.0134642" stop-color="white"/>
<stop offset="0.460321" stop-color="white"/>
<stop offset="1" stop-color="#8792A1" stop-opacity="0.08"/>
</linearGradient>
</defs>
</svg>
